<mxfile host="app.diagrams.net" modified="2023-09-26T15:23:29.455Z" agent="Mozilla/5.0 (X11; Ubuntu; Linux x86_64; rv:109.0) Gecko/20100101 Firefox/117.0" etag="H6OX31gXu2EBfS-Ng5nz" version="21.8.2" type="github">
  <diagram name="Page-1" id="GQm6H3VUnVM6qenIOnZ6">
    <mxGraphModel dx="724" dy="515" grid="1" gridSize="10" guides="1" tooltips="1" connect="1" arrows="1" fold="1" page="1" pageScale="1" pageWidth="827" pageHeight="1169" math="0" shadow="0">
      <root>
        <mxCell id="0" />
        <mxCell id="1" parent="0" />
        <mxCell id="YbANCgYUb2pu8iAOoaGr-8" style="edgeStyle=orthogonalEdgeStyle;rounded=0;orthogonalLoop=1;jettySize=auto;html=1;exitX=0;exitY=0.5;exitDx=0;exitDy=0;" edge="1" parent="1" source="YbANCgYUb2pu8iAOoaGr-2">
          <mxGeometry relative="1" as="geometry">
            <mxPoint x="360" y="180" as="targetPoint" />
          </mxGeometry>
        </mxCell>
        <mxCell id="YbANCgYUb2pu8iAOoaGr-2" value="ArtÃ­culo" style="rounded=0;whiteSpace=wrap;html=1;" vertex="1" parent="1">
          <mxGeometry x="490" y="150" width="120" height="60" as="geometry" />
        </mxCell>
        <mxCell id="YbANCgYUb2pu8iAOoaGr-4" style="edgeStyle=orthogonalEdgeStyle;rounded=0;orthogonalLoop=1;jettySize=auto;html=1;exitX=1;exitY=0.5;exitDx=0;exitDy=0;" edge="1" parent="1" source="YbANCgYUb2pu8iAOoaGr-3">
          <mxGeometry relative="1" as="geometry">
            <mxPoint x="300" y="180" as="targetPoint" />
          </mxGeometry>
        </mxCell>
        <mxCell id="YbANCgYUb2pu8iAOoaGr-3" value="Cliente" style="rounded=0;whiteSpace=wrap;html=1;" vertex="1" parent="1">
          <mxGeometry x="60" y="150" width="120" height="60" as="geometry" />
        </mxCell>
        <mxCell id="YbANCgYUb2pu8iAOoaGr-9" value="Pide" style="rhombus;whiteSpace=wrap;html=1;" vertex="1" parent="1">
          <mxGeometry x="290" y="140" width="80" height="80" as="geometry" />
        </mxCell>
        <mxCell id="YbANCgYUb2pu8iAOoaGr-10" value="1:N" style="text;html=1;strokeColor=none;fillColor=none;align=center;verticalAlign=middle;whiteSpace=wrap;rounded=0;" vertex="1" parent="1">
          <mxGeometry x="400" y="150" width="60" height="30" as="geometry" />
        </mxCell>
        <mxCell id="YbANCgYUb2pu8iAOoaGr-11" value="1:N" style="text;html=1;strokeColor=none;fillColor=none;align=center;verticalAlign=middle;whiteSpace=wrap;rounded=0;" vertex="1" parent="1">
          <mxGeometry x="210" y="150" width="60" height="30" as="geometry" />
        </mxCell>
        <mxCell id="YbANCgYUb2pu8iAOoaGr-12" value="N:M" style="text;html=1;strokeColor=none;fillColor=none;align=center;verticalAlign=middle;whiteSpace=wrap;rounded=0;" vertex="1" parent="1">
          <mxGeometry x="300" y="110" width="60" height="30" as="geometry" />
        </mxCell>
        <mxCell id="YbANCgYUb2pu8iAOoaGr-13" value="" style="ellipse;whiteSpace=wrap;html=1;" vertex="1" parent="1">
          <mxGeometry x="610" y="320" width="50" height="50" as="geometry" />
        </mxCell>
        <mxCell id="YbANCgYUb2pu8iAOoaGr-14" value="" style="ellipse;whiteSpace=wrap;html=1;" vertex="1" parent="1">
          <mxGeometry x="320" y="370" width="60" height="50" as="geometry" />
        </mxCell>
        <mxCell id="YbANCgYUb2pu8iAOoaGr-15" value="" style="ellipse;whiteSpace=wrap;html=1;" vertex="1" parent="1">
          <mxGeometry x="420" y="400" width="60" height="50" as="geometry" />
        </mxCell>
        <mxCell id="YbANCgYUb2pu8iAOoaGr-16" value="" style="ellipse;whiteSpace=wrap;html=1;" vertex="1" parent="1">
          <mxGeometry x="405" y="350" width="50" height="50" as="geometry" />
        </mxCell>
        <mxCell id="YbANCgYUb2pu8iAOoaGr-17" value="" style="ellipse;whiteSpace=wrap;html=1;" vertex="1" parent="1">
          <mxGeometry x="240" y="280" width="70" height="60" as="geometry" />
        </mxCell>
        <mxCell id="YbANCgYUb2pu8iAOoaGr-18" value="" style="ellipse;whiteSpace=wrap;html=1;" vertex="1" parent="1">
          <mxGeometry x="260" y="230" width="60" height="60" as="geometry" />
        </mxCell>
      </root>
    </mxGraphModel>
  </diagram>
</mxfile>
